<?xml version="1.0" encoding="UTF-8" standalone="no"?>
<svg xmlns:dc="http://purl.org/dc/elements/1.1/" xmlns:cc="http://creativecommons.org/ns#" xmlns:rdf="http://www.w3.org/1999/02/22-rdf-syntax-ns#" xmlns:svg="http://www.w3.org/2000/svg" xmlns="http://www.w3.org/2000/svg" xmlns:sodipodi="http://sodipodi.sourceforge.net/DTD/sodipodi-0.dtd" xmlns:inkscape="http://www.inkscape.org/namespaces/inkscape" width="515" height="515" id="svg1" sodipodi:version="0.32" inkscape:version="0.45.1+0.46pre1" sodipodi:docname="contour_bat.svg" sodipodi:docbase="/var/www/html/svg_gallery/svg/animals" inkscape:output_extension="org.inkscape.output.svg.inkscape" version="1.0">
  <metadata id="metadata17"/>
  <defs id="defs5">
    <inkscape:perspective sodipodi:type="inkscape:persp3d" inkscape:vp_x="-50 : 600 : 1" inkscape:vp_y="0 : 1000 : 0" inkscape:vp_z="700 : 600 : 1" inkscape:persp3d-origin="300 : 400 : 1" id="perspective2548"/>
  </defs>
  <sodipodi:namedview id="base" pagecolor="#ffffff" bordercolor="#666666" borderopacity="1.0" inkscape:pageopacity="0.0" inkscape:pageshadow="2" inkscape:zoom="0.9592233" inkscape:cx="257.5" inkscape:cy="257.5" inkscape:window-width="778" inkscape:window-height="717" inkscape:window-x="10" inkscape:window-y="91" inkscape:current-layer="svg1" showgrid="false"/>
  <path style="fill: rgb(0, 0, 0); stroke: none;" d="M 221.8233,174.97808 L 220.0373,190.97808 L 224.7313,203.97808 L 215.9423,217.68798 L 208.2323,225.48658 L 193.8233,221.89088 L 153.8233,204.94958 L 137.8233,197.97808 L 138.8233,191.97808 L 142.8233,191.97808 C 142.0343,187.42278 139.0953,186.62358 134.8233,185.97808 L 134.8233,192.97808 L 133.8233,197.97808 L 69.823299,200.27438 L 6.8232991,210.97808 L 6.8232991,214.97808 C 21.166299,215.09838 27.901999,230.30908 38.912799,237.71498 C 45.316399,242.02198 54.567999,240.97368 61.823299,242.45728 C 71.237399,244.38228 81.758499,250.06818 89.719099,255.32998 C 97.637299,260.56398 97.402299,273.88708 104.0513,277.95008 C 109.8373,281.48508 123.3263,277.76608 129.8233,277.14808 C 147.6033,275.45608 182.5593,278.24308 190.7903,296.97808 C 193.2693,302.62108 186.8713,306.78508 187.8233,312.97808 L 197.8233,305.97808 C 199.7373,311.42908 204.4843,312.31608 208.2293,316.26808 C 217.9103,326.48608 229.2383,334.41608 237.8493,345.59308 C 240.6243,349.19408 240.9813,361.95608 247.6153,359.35508 C 253.6623,356.98408 255.1063,345.88308 259.2133,341.26308 C 264.5993,335.20608 271.7193,331.86508 277.8233,326.78308 C 284.9653,320.83608 290.7963,313.77408 298.8233,308.97808 C 302.3373,320.83508 310.1793,311.35308 300.8233,304.97808 C 311.5843,291.07708 336.7513,286.85908 352.8233,282.71808 C 359.3713,281.03108 363.7333,278.54908 370.8233,279.06808 C 379.2543,279.68608 386.6843,284.09908 394.8233,284.97808 C 398.0863,267.73138 428.6603,255.55658 444.8233,253.14858 C 449.9943,252.37818 458.1793,254.68438 462.5203,253.24578 C 466.0613,252.07248 466.1423,245.07328 468.9703,242.50738 C 476.0483,236.08578 488.8213,230.94818 497.8233,227.97808 C 496.5973,220.91738 475.5193,217.81108 468.8233,216.05528 C 436.8683,207.67608 403.8043,203.97808 370.8233,203.97808 C 370.8233,201.28358 371.5963,196.83838 369.7953,194.58228 C 366.6463,190.63678 362.4133,194.57958 361.8233,197.97808 L 366.8233,197.97808 L 366.8233,201.97808 C 355.9583,202.47568 347.3103,208.86928 337.8233,213.22808 C 330.1873,216.73638 321.6893,218.65908 313.8233,221.57148 C 306.7943,224.17368 296.0473,228.70988 288.9133,224.12008 C 284.1113,221.03048 281.6833,214.80058 279.0523,209.97808 C 277.1243,206.44398 273.7733,202.92518 272.8363,198.97808 C 271.1493,191.87338 274.7633,183.24758 274.8233,175.97808 L 254.8233,181.89478 L 221.8233,174.97808 z" id="path3"/>
  <metadata id="metadata19">
    <rdf:RDF>
      <cc:Work rdf:about="">
        <dc:title>Clipart by Nicu Buculei - contour_chipmunk</dc:title>
        <dc:rights>
          <cc:Agent>
            <dc:title>Nicu Buculei</dc:title>
          </cc:Agent>
        </dc:rights>
        <dc:type rdf:resource="http://purl.org/dc/dcmitype/StillImage"/>
        <cc:license rdf:resource="http://web.resource.org/cc/PublicDomain"/>
        <dc:format>image/svg+xml</dc:format>
      </cc:Work>
      <cc:License rdf:about="http://web.resource.org/cc/PublicDomain">
        <cc:permits rdf:resource="http://web.resource.org/cc/Reproduction"/>
        <cc:permits rdf:resource="http://web.resource.org/cc/Distribution"/>
        <cc:permits rdf:resource="http://web.resource.org/cc/DerivativeWorks"/>
      </cc:License>
    </rdf:RDF>
  </metadata>
</svg>