<?xml version="1.0" encoding="UTF-8" standalone="no"?>
<!-- Created with Inkscape (http://www.inkscape.org/) -->
<svg xmlns:dc="http://purl.org/dc/elements/1.1/" xmlns:cc="http://creativecommons.org/ns#" xmlns:rdf="http://www.w3.org/1999/02/22-rdf-syntax-ns#" xmlns:svg="http://www.w3.org/2000/svg" xmlns="http://www.w3.org/2000/svg" xmlns:sodipodi="http://sodipodi.sourceforge.net/DTD/sodipodi-0.dtd" xmlns:inkscape="http://www.inkscape.org/namespaces/inkscape" width="288.80518" height="400.00003" id="svg2" sodipodi:version="0.32" inkscape:version="0.45+devel" sodipodi:docname="mouse.svg" inkscape:output_extension="org.inkscape.output.svg.inkscape" version="1.0">
  <defs id="defs4">
    <filter inkscape:collect="always" id="filter3307" x="-0.036511704" width="1.0730234" y="-0.44118312" height="1.8823662">
      <feGaussianBlur inkscape:collect="always" stdDeviation="4.4566226" id="feGaussianBlur3309"/>
    </filter>
    <filter inkscape:collect="always" id="filter3272">
      <feGaussianBlur inkscape:collect="always" stdDeviation="9.8155088" id="feGaussianBlur3274"/>
    </filter>
  </defs>
  <sodipodi:namedview id="base" pagecolor="#ffffff" bordercolor="#666666" borderopacity="1.0" gridtolerance="10000" guidetolerance="10" objecttolerance="10" inkscape:pageopacity="0.0" inkscape:pageshadow="2" inkscape:zoom="0.5" inkscape:cx="157.78529" inkscape:cy="211.61963" inkscape:document-units="px" inkscape:current-layer="layer1" showgrid="false" inkscape:window-width="1035" inkscape:window-height="727" inkscape:window-x="5" inkscape:window-y="61" showguides="true" inkscape:guide-bbox="true"/>
  <metadata id="metadata7">
    <rdf:RDF>
      <cc:Work rdf:about="">
        <dc:format>image/svg+xml</dc:format>
        <dc:type rdf:resource="http://purl.org/dc/dcmitype/StillImage"/>
      </cc:Work>
    </rdf:RDF>
  </metadata>
  <g inkscape:label="Layer 1" inkscape:groupmode="layer" id="layer1" transform="translate(-215.779, -26.4577)">
    <path sodipodi:type="arc" style="opacity: 0.55; fill: rgb(72, 72, 72); fill-opacity: 1; fill-rule: nonzero; stroke: none; stroke-width: 5.94369; stroke-linecap: round; stroke-linejoin: round; stroke-miterlimit: 4; stroke-dasharray: none; stroke-opacity: 1; filter: url(#filter3307);" id="path3293" sodipodi:cx="364.66507" sodipodi:cy="675.57526" sodipodi:rx="146.47212" sodipodi:ry="12.121831" d="M 511.13719,675.57526 A 146.47212,12.121831 0 1 1 218.19295,675.57526 A 146.47212,12.121831 0 1 1 511.13719,675.57526 z" transform="matrix(0.863778, 0, 0, 4.95752, 45.4522, -2982.82)"/>
    <path style="fill: rgb(72, 72, 72); fill-opacity: 1; fill-rule: evenodd; stroke: rgb(0, 0, 0); stroke-width: 5.25891; stroke-linecap: round; stroke-linejoin: round; stroke-miterlimit: 4; stroke-dasharray: none; stroke-opacity: 1;" d="M 400.54477,81.313343 C 407.12302,64.393372 436.72966,44.242531 465.79832,29.087161 C 469.75518,104.30154 438.24513,137.22605 408.55088,126.63102 C 408.85694,110.64112 411.86287,93.848898 400.54477,81.313343 z" id="path3186" sodipodi:nodetypes="cccc"/>
    <path style="fill: rgb(72, 72, 72); fill-opacity: 1; fill-rule: evenodd; stroke: rgb(0, 0, 0); stroke-width: 6.57363; stroke-linecap: butt; stroke-linejoin: round; stroke-miterlimit: 4; stroke-dasharray: none; stroke-opacity: 1;" d="M 379.06825,326.2592 L 463.21074,256.84165 C 482.04367,237.23014 454.76873,206.75609 444.97987,180.41222 C 436.68451,144.2595 479.17371,131.19066 498.27011,107.48873 C 487.05082,131.32903 452.07388,149.22991 464.61312,179.00985 C 471.15799,205.42156 496.40885,244.63209 484.24636,258.24402 C 447.81194,301.54157 414.12762,303.58748 379.06825,326.2592 z" id="path3178" sodipodi:nodetypes="ccccccc"/>
    <path style="fill: rgb(72, 72, 72); fill-opacity: 1; fill-rule: evenodd; stroke: rgb(0, 0, 0); stroke-width: 5.25891; stroke-linecap: butt; stroke-linejoin: round; stroke-miterlimit: 4; stroke-dasharray: none; stroke-opacity: 1;" d="M 301.48882,189.85459 L 254.20797,248.00765 L 235.55416,241.5327 L 218.40884,262.75573 L 240.53984,254.20157 L 226.44322,274.69054 L 249.68059,261.35437 L 239.52476,283.47481 L 259.97864,266.61581 L 265.71424,254.26833 L 322.09021,191.02244 L 301.48882,189.85459 z" id="path3188"/>
    <path id="path3192" d="M 418.87513,189.85459 L 466.15598,248.00765 L 484.80979,241.5327 L 501.95511,262.75573 L 479.82411,254.20157 L 493.92073,274.69054 L 470.68336,261.35437 L 480.83919,283.47481 L 460.38531,266.61581 L 454.64971,254.26833 L 398.27374,191.02244 L 418.87513,189.85459 z" style="fill: rgb(72, 72, 72); fill-opacity: 1; fill-rule: evenodd; stroke: rgb(0, 0, 0); stroke-width: 5.25891; stroke-linecap: butt; stroke-linejoin: round; stroke-miterlimit: 4; stroke-dasharray: none; stroke-opacity: 1;"/>
    <path id="path3198" d="M 420.01094,344.35019 L 424.72225,352.39189 L 445.87372,368.0366 L 418.1534,356.54423 L 432.91261,378.37526 L 410.89877,363.5963 L 418.97537,387.72025 L 398.81486,367.90299 L 399.71206,355.75801 L 420.01094,344.35019 z" style="fill: rgb(72, 72, 72); fill-opacity: 1; fill-rule: evenodd; stroke: rgb(0, 0, 0); stroke-width: 6.57363; stroke-linecap: round; stroke-linejoin: round; stroke-miterlimit: 4; stroke-dasharray: none; stroke-opacity: 1;"/>
    <path style="fill: rgb(72, 72, 72); fill-opacity: 1; fill-rule: nonzero; stroke: rgb(0, 0, 0); stroke-width: 6.57363; stroke-linejoin: round; stroke-miterlimit: 4; stroke-dasharray: none; stroke-opacity: 1;" d="M 450.74395,285.61657 C 450.74395,327.81745 410.46935,362.06745 360.8453,362.06745 C 311.22126,362.06745 270.94667,327.81745 270.94667,285.61657 C 270.94667,267.88483 278.05701,251.5568 289.98365,238.58335 C 306.44199,220.68044 295.52452,136.14253 360.49471,136.14253 C 427.44456,136.14253 415.3972,220.74732 431.84987,238.73921 C 443.69039,251.68746 450.74395,267.95576 450.74395,285.61657 z" id="path2388" sodipodi:nodetypes="cssszsc"/>
    <path style="fill: rgb(72, 72, 72); fill-opacity: 1; fill-rule: evenodd; stroke: rgb(0, 0, 0); stroke-width: 6.57363; stroke-linecap: round; stroke-linejoin: round; stroke-miterlimit: 4; stroke-dasharray: none; stroke-opacity: 1;" d="M 301.96983,344.35019 L 297.25853,352.39189 L 276.10706,368.0366 L 303.82739,356.54423 L 289.06817,378.37526 L 311.08201,363.5963 L 303.00541,387.72025 L 323.16593,367.90299 L 322.26871,355.75801 L 301.96983,344.35019 z" id="path3271"/>
    <g id="g3204" style="fill: rgb(0, 0, 0); fill-opacity: 1; filter: url(#filter3272);" transform="matrix(0.350594, 0, 0, 0.350594, 236.134, 148.883)">
      <path style="opacity: 1; fill: rgb(0, 0, 0); fill-opacity: 1; fill-rule: nonzero; stroke: rgb(0, 0, 0); stroke-width: 15; stroke-linejoin: round; stroke-miterlimit: 4; stroke-dasharray: none; stroke-opacity: 1;" d="M 358.42487,-209.96761 C 272.42895,-209.96761 202.6164,-158.71192 202.61637,-95.52866 C 202.61637,-76.881892 302.36522,143.58402 313.14536,159.14508 C 402.86971,132.98498 313.2751,136.35778 402.38731,161.0606 C 414.0097,145.03749 514.23337,-76.116139 514.23337,-95.52866 C 514.23337,-158.71192 444.42079,-209.9676 358.42487,-209.96761 z" id="path3207" sodipodi:nodetypes="csccsc"/>
      <path sodipodi:type="arc" style="fill: rgb(0, 0, 0); fill-opacity: 1; fill-rule: nonzero; stroke: rgb(0, 0, 0); stroke-width: 39.3034; stroke-linejoin: round; stroke-miterlimit: 4; stroke-dasharray: none; stroke-opacity: 1;" id="path3209" sodipodi:cx="379.28571" sodipodi:cy="466.64789" sodipodi:rx="137.85715" sodipodi:ry="92.85714" d="M 517.14285,466.64789 A 137.85715,92.85714 0 1 1 241.42856,466.64789 A 137.85715,92.85714 0 1 1 517.14285,466.64789 z" transform="matrix(0.364268, 0, 0, 0.558779, 219.172, -80.3498)"/>
    </g>
    <path sodipodi:nodetypes="cccc" id="path3298" d="M 324.33327,81.313343 C 317.755,64.393372 288.14838,44.242531 259.07971,29.087161 C 255.12286,104.30154 286.63289,137.22605 316.32716,126.63102 C 316.0211,110.64112 313.01517,93.848898 324.33327,81.313343 z" style="fill: rgb(72, 72, 72); fill-opacity: 1; fill-rule: evenodd; stroke: rgb(0, 0, 0); stroke-width: 5.25891; stroke-linecap: round; stroke-linejoin: round; stroke-miterlimit: 4; stroke-dasharray: none; stroke-opacity: 1;"/>
    <g id="g3200" transform="matrix(0.350594, 0, 0, 0.350594, 236.134, 143.975)">
      <path sodipodi:nodetypes="cccccc" id="path3195" d="M 358.42487,-209.96761 C 272.42895,-209.96761 202.6164,-158.71192 202.61637,-95.52866 C 202.61637,-76.881892 302.36522,143.58402 313.14536,159.14508 C 402.86971,132.98498 313.2751,136.35778 402.38731,161.0606 C 414.0097,145.03749 514.23337,-76.116139 514.23337,-95.52866 C 514.23337,-158.71192 444.42079,-209.9676 358.42487,-209.96761 z" style="opacity: 1; fill: rgb(72, 72, 72); fill-opacity: 1; fill-rule: nonzero; stroke: rgb(0, 0, 0); stroke-width: 15; stroke-linejoin: round; stroke-miterlimit: 4; stroke-dasharray: none; stroke-opacity: 1;"/>
      <path transform="matrix(0.364268, 0, 0, 0.558779, 219.172, -80.3498)" d="M 517.14285,466.64789 A 137.85715,92.85714 0 1 1 241.42856,466.64789 A 137.85715,92.85714 0 1 1 517.14285,466.64789 z" sodipodi:ry="92.85714" sodipodi:rx="137.85715" sodipodi:cy="466.64789" sodipodi:cx="379.28571" id="path3160" style="fill: rgb(0, 0, 0); fill-opacity: 1; fill-rule: nonzero; stroke: rgb(0, 0, 0); stroke-width: 39.3034; stroke-linejoin: round; stroke-miterlimit: 4; stroke-dasharray: none; stroke-opacity: 1;" sodipodi:type="arc"/>
    </g>
    <path style="fill: rgb(255, 255, 255); fill-opacity: 1; fill-rule: nonzero; stroke: rgb(0, 0, 0); stroke-width: 0.465405; stroke-linejoin: round; stroke-miterlimit: 4; stroke-dasharray: none; stroke-opacity: 1;" d="M 341.77859,102.23966 C 336.53508,102.83123 333.31144,114.61191 334.57674,128.55348 C 335.31445,136.68174 337.42215,143.75377 340.08703,148.12117 C 344.01938,145.775 348.28195,144.06133 352.79646,143.04975 C 353.80966,138.48076 354.13995,132.65365 353.57332,126.41031 C 352.30802,112.46874 347.02206,101.64811 341.77859,102.23966 z" id="path3190"/>
    <path sodipodi:type="arc" style="fill: rgb(0, 0, 0); fill-opacity: 1; fill-rule: nonzero; stroke: rgb(0, 0, 0); stroke-width: 0.810912; stroke-linejoin: round; stroke-miterlimit: 4; stroke-dasharray: none; stroke-opacity: 1;" id="path3191" sodipodi:cx="330.35715" sodipodi:cy="367.00504" sodipodi:rx="8.2142859" sodipodi:ry="16.428572" d="M 338.57143,367.00504 A 8.2142859,16.428572 0 1 1 322.14286,367.00504 A 8.2142859,16.428572 0 1 1 338.57143,367.00504 z" transform="matrix(0.432635, -0.0488094, 0.0683993, 0.753648, 176.782, -129.463)"/>
    <path id="path3204" d="M 380.50232,101.68641 C 385.7458,102.27798 388.96945,114.05865 387.70414,128.00023 C 386.96643,136.12849 384.85873,143.20052 382.19387,147.56793 C 378.2615,145.22175 373.99894,143.50808 369.48443,142.4965 C 368.47123,137.92751 368.14094,132.1004 368.70756,125.85705 C 369.97288,111.91548 375.25882,101.09485 380.50232,101.68641 z" style="fill: rgb(255, 255, 255); fill-opacity: 1; fill-rule: nonzero; stroke: rgb(0, 0, 0); stroke-width: 0.465405; stroke-linejoin: round; stroke-miterlimit: 4; stroke-dasharray: none; stroke-opacity: 1;"/>
    <path transform="matrix(-0.432635, -0.0488094, -0.0683993, 0.753648, 545.499, -130.016)" d="M 338.57143,367.00504 A 8.2142859,16.428572 0 1 1 322.14286,367.00504 A 8.2142859,16.428572 0 1 1 338.57143,367.00504 z" sodipodi:ry="16.428572" sodipodi:rx="8.2142859" sodipodi:cy="367.00504" sodipodi:cx="330.35715" id="path3206" style="fill: rgb(0, 0, 0); fill-opacity: 1; fill-rule: nonzero; stroke: rgb(0, 0, 0); stroke-width: 0.810912; stroke-linejoin: round; stroke-miterlimit: 4; stroke-dasharray: none; stroke-opacity: 1;" sodipodi:type="arc"/>
  </g>
</svg>