<?xml version="1.0" encoding="UTF-8"?>
<!-- Generator: Adobe Illustrator 12.0.1, SVG Export Plug-In . SVG Version: 6.00 Build 51448)  -->
<!DOCTYPE svg PUBLIC "-//W3C//DTD SVG 1.1//EN" "http://www.w3.org/Graphics/SVG/1.1/DTD/svg11.dtd" [
	<!ENTITY ns_svg "http://www.w3.org/2000/svg">
	<!ENTITY ns_xlink "http://www.w3.org/1999/xlink">
]>
<svg version="1.1" id="Layer_1" xmlns="http://www.w3.org/2000/svg" xmlns:xlink="http://www.w3.org/1999/xlink" width="294.275" height="294.343" viewBox="0 0 294.275 294.343" overflow="visible" enable-background="new 0 0 294.275 294.343" xml:space="preserve">
<g>
	<path d="M147.706,0.067c1.894,0,3.787,0,5.682,0c9.702,3.174,18.554,7.2,21.587,17.043c40.445-17.262,45.035,30.309,79.533,32.95   c5.352,9.799,15.13,15.17,13.636,31.813c6.798,7.594,16.372,12.412,21.588,21.588c-0.202,10.806-0.404,21.613,4.545,27.269   c0,4.545,0,9.09,0,13.635C197.754,189.867,121.27,255.412,18.179,294.343c-2.271,0-4.545,0-6.817,0   C8.115,288.121,2.22,284.548,0,277.3c0-2.271,0-4.545,0-6.816c0.488-13.215,5.952-19.678,9.09-30.679   c3.296-11.556,4.7-24.88,6.817-37.494c2.292-13.653,1.688-29.438,5.681-39.767c2.494-6.455,10.077-9.91,13.634-15.907   c10.752-18.126,13.975-40.632,23.86-56.811c4.331-0.849,7.476,5.329,7.954-1.136c-0.072-7.918-2.03-13.243,0-20.452   c6.418-2.966,12.407-6.164,13.634-13.635c1.54-9.383-7.112-20.859-4.545-30.677c2.134-8.158,12.896-13.488,21.588-14.771   c8.21-1.213,16.156,4.114,23.861,3.408C133.088,11.511,136.354-1.021,147.706,0.067z M157.932,5.748   c-22.666-4.487-25.304,11.055-38.63,15.907C109.627,8.1,80.134,13.048,80.67,31.88c2.307,6.025,8.482,8.181,6.816,18.18   c12.466-3.442,23.456-8.359,36.359-11.362c8.956,12.695,22.297,4.001,35.221,5.681c8.834,1.148,17.807,11.939,27.271,14.771   c16.326,4.884,31.666,4.363,44.312,12.498c5.612,6.61,4.297,13.984,10.227,20.452c7.138,7.787,16.979,7.908,21.587,17.043   c4.55,9.021,3.894,19.845,17.044,19.315c14.307-15.786-2.07-37.986-15.907-43.175c2.808-25.955-18.473-41.281-45.448-37.495   c4.32-23.746-27.565-35.483-46.584-22.724C172.448,13.199,163.774,10.89,157.932,5.748z M78.398,69.375   c4.125,0.041,8.97-0.637,10.227,2.272c0,2.272,0,4.545,0,6.817c-3.989,1.693-10.069,1.294-14.771,2.272   c-1.413,3.511-1.769,8.078-2.271,12.498c39.257,21.768,4.585,90.946-40.903,67.036c-10.596,13.267-8.539,45.237-11.362,62.489   c5.837-5.522,9.445-13.276,11.362-22.723c9.392,1.971,13.417,9.308,15.907,18.178c-8.873,7.416-22.947,9.627-31.814,17.045   c-2.433,13.476-9.416,22.396-9.089,38.632c9.885-8.476,18.248-5.302,31.813-7.953c17.971-3.513,25.478-23.278,37.495-27.271   c3.783-1.256,8.95,0.545,12.498,0c23.897-3.666,28.093-26.418,44.312-39.767c3.183,0.604,5.907,1.667,9.09,2.271   c22.82-8.357,47.945-23.188,69.31-37.493c6.648-4.454,21.007-20.24,23.86-12.499c7.319-11.238,29.566-7.549,34.085-21.587   c-3.29-4.664-8.12-7.785-11.361-12.499c3.835-11.832-7.598-17.092-18.179-18.179c-5.42-7.079-7.081-17.917-12.499-24.997   c-14.569-1.885-27.381-11.02-43.176-7.953c-12.42-8.789-24.578-17.841-48.855-14.771c-5.166-1.652-6.434-7.203-12.498-7.953   C107.616,52.388,85.652,53.526,78.398,69.375z M70.444,77.329c6.04-0.399,13.912,1.035,14.771-4.545   c-5.977,0.295-10.586-0.776-14.771-2.272C70.444,72.784,70.444,75.056,70.444,77.329z M61.355,94.372   c-9.233,20.308-18.158,40.924-26.133,62.491C74.516,180.005,108.771,103.084,61.355,94.372z M269.279,136.411   c-15.718,12.862-35.521,18.872-54.536,28.405c-12.008,6.018-24.092,16.762-37.495,23.859c-14.914,7.9-32.403,11.466-44.312,18.181   c-11.024,6.218-15.767,20.247-23.86,28.405c-10.598,5.385-22.454,5.992-32.95,10.225c-13.038,5.26-22.085,18.896-36.358,23.861   c-12.532,4.357-24.31,2.251-32.95,13.634c4.408,7.62,10.209,5.503,17.043,3.41c21.554-6.604,40.803-15.479,57.946-24.996   c59.827-33.211,112.92-67.992,173.838-101.124c11.384-6.189,39.656-16.375,32.951-29.542   C285.252,131.2,277.444,136.981,269.279,136.411z M19.315,228.444c7.793-3.946,15.111-8.37,23.86-11.362   c-4.521-3.435-5.029-10.877-10.226-13.635C31.972,215.347,24.65,220.902,19.315,228.444z"/>
	<path fill="#CBB676" d="M171.566,25.063c19.019-12.759,50.904-1.022,46.584,22.724c26.977-3.786,48.255,11.54,45.448,37.495   c13.837,5.189,30.214,27.39,15.907,43.175c-13.15,0.529-12.494-10.294-17.044-19.315c-4.606-9.135-14.449-9.256-21.587-17.043   c-5.93-6.468-4.613-13.842-10.227-20.452c-12.646-8.135-27.985-7.614-44.312-12.498c-9.464-2.832-18.437-13.622-27.271-14.771   c-12.924-1.68-26.265,7.014-35.221-5.681c-12.903,3.003-23.894,7.92-36.359,11.362c1.666-9.999-4.51-12.154-6.816-18.18   c-0.536-18.833,28.957-23.78,38.631-10.226c13.326-4.852,15.964-20.394,38.63-15.907C163.774,10.89,172.448,13.199,171.566,25.063z   "/>
	<path d="M164.749,56.877c4.04,2.398,8.469,4.408,11.361,7.954c-2.295,6.038-7.977,8.688-10.227,14.771   c-3.491-0.295-5.108-2.465-7.953-3.409C158.572,68.123,162.899,63.737,164.749,56.877z M164.749,76.192   c1.186-4.496,5.627-5.735,5.681-11.362c-2.257-0.015-1.445-3.1-4.545-2.272C164.48,65.625,159.54,73.634,164.749,76.192z"/>
	<path fill="#5D9732" d="M144.297,61.422c13.621,6.95,4.042,29.119-3.408,35.222C139.743,87.155,146.759,76.01,144.297,61.422z"/>
	<path fill="#FBF290" d="M165.885,62.558c3.1-0.828,2.288,2.258,4.545,2.272c-0.054,5.626-4.495,6.866-5.681,11.362   C159.54,73.634,164.48,65.625,165.885,62.558z"/>
	<path fill="#FBF290" d="M70.444,70.511c4.186,1.496,8.795,2.568,14.771,2.272c-0.859,5.58-8.731,4.146-14.771,4.545   C70.444,75.056,70.444,72.784,70.444,70.511z"/>
	<path d="M130.664,78.465c-0.901,17.923-26.326,26.021-43.177,17.043C80.491,74.058,117.539,65.768,130.664,78.465z M92.032,90.963   c11.802,8.289,30.259,0.109,32.948-11.362C116.323,71.515,90.05,74.489,92.032,90.963z"/>
	<path fill="#8A7967" d="M124.981,79.601c-2.689,11.471-21.146,19.65-32.948,11.362C90.05,74.489,116.323,71.515,124.981,79.601z    M99.986,85.282c0.362,2.667,3.517,2.543,4.545,4.544c6.829-1.125,10.89-5.017,13.634-10.226   C111.305,76.677,100.45,76.081,99.986,85.282z"/>
	<path d="M209.061,75.056c13.987,0.025,18.065,9.962,17.044,24.997c3.291,3.905,7.62,6.771,11.362,10.226c0-2.272,0-4.544,0-6.817   c6.184,1.012,9.931,4.46,17.041,4.545c-2.744,7.858-5.793,15.414-9.088,22.724c-4.176-0.369-6.286-2.803-10.227-3.408   c-0.458-5.382,2.027-7.819,1.137-13.635c-2.076,1.711-2.674,4.901-4.545,6.817c-5.265-2.312-10.356-4.793-14.771-7.954   c-5.355,0.704-6.966,5.155-12.499,5.681C203.908,101.717,205.22,87.122,209.061,75.056z M210.197,113.687   c-0.769-7.521,24.84-29.398,1.137-34.086C210.043,88.654,204.278,104.956,210.197,113.687z M218.15,109.142   c5.125,1.314,6.698,6.181,13.636,5.681c2.711-7.299-6.998-9.85-11.362-13.634C219.472,103.646,217.481,105.064,218.15,109.142z    M243.148,126.186c1.651-4.786,3.854-9.023,4.545-14.771c-2.377-0.653-3.243-2.817-6.817-2.272   C240.815,114.874,234.727,125.166,243.148,126.186z"/>
	<path d="M118.164,79.601c-2.744,5.208-6.806,9.101-13.634,10.226c-1.028-2.001-4.183-1.877-4.545-4.544   C100.45,76.081,111.305,76.677,118.164,79.601z"/>
	<path fill="#E9D3A2" d="M211.333,79.601c23.703,4.688-1.904,26.564-1.137,34.086C204.278,104.956,210.043,88.654,211.333,79.601z"/>
	<path d="M128.392,109.142c-6.41,3.817-11.273,9.179-18.181,12.499c-5.815-1.38-7.215-7.176-11.361-10.226   C106.423,103.774,123.732,91.81,128.392,109.142z M104.531,111.415c2.513,0.896,2.844,3.975,4.545,5.681   c5.384-2.57,9.898-6.007,13.634-10.226C116.07,101.217,109.218,108.321,104.531,111.415z"/>
	<path fill="#FBF290" d="M220.423,101.189c4.364,3.785,14.073,6.335,11.362,13.634c-6.938,0.5-8.511-4.367-13.636-5.681   C217.481,105.064,219.472,103.646,220.423,101.189z"/>
	<path fill="#FBF290" d="M122.709,106.87c-3.734,4.218-8.25,7.656-13.634,10.226c-1.701-1.707-2.032-4.785-4.545-5.681   C109.218,108.321,116.07,101.217,122.709,106.87z"/>
	<path fill="#FBF290" d="M240.875,109.142c3.574-0.544,4.44,1.619,6.817,2.272c-0.691,5.748-2.894,9.985-4.545,14.771   C234.727,125.166,240.815,114.874,240.875,109.142z"/>
	<path d="M53.401,120.504c1.137,0,2.272,0,3.409,0c0.824,3.475-1.96,3.342-1.136,6.817   C51.377,128.296,51.653,122.235,53.401,120.504z"/>
	<path d="M151.115,138.684c-12.146,3.35-29.249,0.775-37.495,4.545c-9.448,12.452-21.946,26.858-43.177,23.86   c12.181-14.332,29.77-23.254,37.494-42.041c2.722,1.447,4.627,3.706,4.545,7.953c4.62-2.576,2.802-11.592,9.092-12.498   C131.02,126.965,141.491,132.4,151.115,138.684z M114.757,139.82c6.332-5.432,20.37-1.305,28.404-3.409   c-9.177-2.186-14.741-7.982-21.587-12.498C119.864,129.778,115.315,132.804,114.757,139.82z M81.807,163.68   c10.888-8.052,32.229-11.699,26.132-32.95C103.49,145.221,87.836,154.555,81.807,163.68z"/>
	<path fill="#E9D3A2" d="M121.574,123.913c6.846,4.516,12.41,10.312,21.587,12.498c-8.034,2.104-22.072-2.023-28.404,3.409   C115.315,132.804,119.864,129.778,121.574,123.913z"/>
	<path fill="#E7D8AC" d="M288.596,130.73c6.705,13.167-21.567,23.352-32.951,29.542c-60.918,33.131-114.011,67.913-173.838,101.124   c-17.145,9.516-36.394,18.391-57.946,24.996c-6.833,2.093-12.635,4.21-17.043-3.41c8.641-11.383,20.417-9.275,32.95-13.634   c14.273-4.964,23.321-18.603,36.358-23.861c10.496-4.231,22.353-4.84,32.95-10.225c8.095-8.158,12.836-22.188,23.86-28.405   c11.907-6.715,29.396-10.279,44.312-18.18c13.403-7.1,25.487-17.842,37.495-23.86c19.017-9.534,38.818-15.543,54.536-28.405   C277.444,136.981,285.252,131.2,288.596,130.73z"/>
	<path d="M65.9,131.866c3.265,0.145,5.396,1.421,4.544,5.681c-4.425-2.9-6.587,2.306-4.544,6.817   C60.776,142.292,65.529,135.447,65.9,131.866z"/>
	<path d="M31.813,169.361c4.569,1.87,10.202,2.678,14.771,4.545c-1.537,8.311-6.296,13.396-9.09,20.452   c-5.054,0.509-8.282-0.81-11.362-2.272C28.601,185.085,29.163,176.177,31.813,169.361z M34.086,189.812   c4.745-2.072,6.393-7.241,6.816-13.635c-3.326,0.298-3.49-2.567-6.816-2.271C33.822,177.843,28.475,187.417,34.086,189.812z"/>
	<path d="M113.62,201.173c-6.569,2.904-12.692,2.117-17.043-2.271c0.322,4.601,1.949,7.897,2.271,12.498   c5.272-3.438,11.603-5.819,15.907-10.228c3.476,22.677-36.431,47.957-48.857,23.859c8.155-0.554,13.978-3.441,20.452-5.68   c-6.175-1.23-18.487,1.189-27.269,1.135c0.893-6.301,3.214-11.177,4.545-17.042c-6.158,4.056-19.995,4.628-21.588-5.681   C37.563,168.82,133.99,157.746,113.62,201.173z M111.348,181.859c-12.169-15.854-90.336,2.27-57.946,22.725   c4.825-1.236,6.944-5.178,10.227-7.953c7.48,3.684,0.741,14.558,0,20.451c11.271-0.092,21.274-1.449,31.812-2.272   c-0.682-7.363-5.798-20.302,3.409-21.588C105.12,210.75,118.545,191.234,111.348,181.859z M71.581,228.444   c15.594,9.372,32.656-8.817,36.357-18.18C99.484,219.99,84.594,223.278,71.581,228.444z"/>
	<path fill="#FBF290" d="M34.086,173.906c3.326-0.296,3.491,2.57,6.816,2.272c-0.424,6.394-2.071,11.562-6.816,13.634   C28.475,187.417,33.822,177.843,34.086,173.906z"/>
	<path fill="#C5C19D" d="M98.85,193.221c-9.207,1.286-4.09,14.225-3.409,21.588c-10.538,0.823-20.543,2.183-31.812,2.272   c0.741-5.895,7.48-16.769,0-20.451c-3.282,2.775-5.401,6.717-10.227,7.953c-32.39-20.455,45.777-38.578,57.946-22.725   C118.545,191.234,105.12,210.75,98.85,193.221z"/>
	<path d="M102.334,166.167c5.299-4.594,9.725-13.155,15.121-17.301c2.232,1.428,4.466,2.857,6.697,4.286   c-2.465,6.849-6.27,13.989-10.947,21.323C112.066,171.162,105.903,168.949,102.334,166.167z M112.784,168.811   c2.772-5.544,7.661-11.554,4.746-15.849c-3.358,3.433-6.302,8.77-9.876,11.216C109.923,165.599,109.418,167.63,112.784,168.811z"/>
	<path fill="#FBF290" d="M107.655,164.177c3.574-2.446,6.518-7.783,9.876-11.215c2.915,4.295-1.974,10.305-4.746,15.849   C109.418,167.63,109.923,165.599,107.655,164.177z"/>
	<path fill="#E9D3A2" d="M32.95,203.447c5.196,2.758,5.707,10.2,10.226,13.635c-8.75,2.992-16.067,7.416-23.86,11.362   C24.65,220.902,31.972,215.347,32.95,203.447z"/>
	<path fill="#5D9732" d="M107.938,210.264c-3.701,9.362-20.764,27.552-36.357,18.18C84.594,223.278,99.484,219.99,107.938,210.264z"/>
	<path d="M57.946,229.58c0.912,24.016-15.119,31.086-37.494,31.815C0.363,243.216,37.795,218.175,57.946,229.58z M19.315,250.033   c4.016,12.932,36.781,0.387,32.95-17.043C41.073,223.916,15.587,238.023,19.315,250.033z"/>
	<path fill="#8A7967" d="M52.265,232.99c3.832,17.43-28.935,29.975-32.95,17.043C15.587,238.023,41.073,223.916,52.265,232.99z    M27.269,246.623c8.025,1.776,18.282-2.517,18.18-12.498C36.055,231.457,27.151,236.294,27.269,246.623z"/>
	<path d="M45.448,234.125c0.103,9.981-10.154,14.274-18.18,12.498C27.151,236.294,36.055,231.457,45.448,234.125z"/>
	<path fill="#B5121B" d="M121.574,43.243c6.064,0.75,7.331,6.301,12.497,7.953c24.278-3.07,36.438,5.982,48.856,14.771   c15.795-3.067,28.605,6.068,43.176,7.953c5.418,7.079,7.079,17.917,12.499,24.997c10.581,1.087,22.014,6.348,18.178,18.179   c3.242,4.713,8.072,7.835,11.362,12.499c-4.519,14.038-26.766,10.35-34.085,21.587c-2.854-7.741-17.212,8.044-23.861,12.499   c-21.362,14.307-46.487,29.136-69.309,37.494c-3.183-0.604-5.907-1.668-9.09-2.271c-16.219,13.35-20.414,36.102-44.312,39.766   c-3.547,0.545-8.715-1.256-12.499,0c-12.017,3.992-19.522,23.76-37.494,27.271c-13.565,2.65-21.929-0.521-31.813,7.953   c-0.327-16.234,6.657-25.156,9.089-38.631c8.867-7.42,22.941-9.629,31.814-17.045c-2.491-8.871-6.516-16.207-15.907-18.178   c-1.917,9.444-5.524,17.199-11.362,22.723c2.823-17.254,0.767-49.223,11.362-62.49c45.488,23.91,80.161-45.269,40.903-67.036   c0.503-4.42,0.858-8.987,2.271-12.498c4.702-0.979,10.782-0.579,14.771-2.272c0-2.272,0-4.545,0-6.817   c-1.257-2.909-6.103-2.231-10.227-2.272C85.652,53.526,107.616,52.388,121.574,43.243z M134.072,105.734   c19.805-3.909,32.929-45.188,5.683-51.129c-1.498,3.522,3.366,6.302,0,7.954c-5.513-15.794-39.664-16.889-42.041,2.272   c19.583-1.782,32.151,3.451,43.175,10.226C140.354,86.271,133.611,97.307,134.072,105.734z M157.932,76.192   c2.845,0.943,4.462,3.114,7.953,3.409c2.25-6.083,7.932-8.732,10.227-14.771c-2.894-3.545-7.321-5.556-11.361-7.954   C162.899,63.737,158.572,68.123,157.932,76.192z M87.488,95.508c16.851,8.978,42.275,0.88,43.177-17.043   C117.539,65.768,80.491,74.058,87.488,95.508z M204.516,118.232c5.533-0.526,7.144-4.978,12.499-5.681   c4.414,3.16,9.507,5.642,14.771,7.954c1.871-1.916,2.469-5.106,4.545-6.817c0.892,5.815-1.595,8.253-1.137,13.635   c3.939,0.605,6.051,3.039,10.227,3.408c3.295-7.31,6.344-14.866,9.088-22.724c-7.11-0.084-10.857-3.533-17.041-4.545   c0,2.272,0,4.545,0,6.817c-3.742-3.454-8.071-6.321-11.362-10.226c1.021-15.035-3.057-24.971-17.044-24.997   C205.22,87.122,203.908,101.717,204.516,118.232z M98.85,111.415c4.146,3.05,5.546,8.846,11.361,10.226   c6.906-3.32,11.771-8.681,18.181-12.499C123.732,91.81,106.423,103.774,98.85,111.415z M121.574,120.504   c-6.29,0.906-4.472,9.922-9.092,12.498c0.082-4.247-1.823-6.506-4.545-7.953c-7.726,18.785-25.313,27.708-37.494,42.041   c21.229,2.998,33.729-11.409,43.177-23.86c8.246-3.77,25.349-1.195,37.495-4.545C141.491,132.4,131.02,126.965,121.574,120.504z    M26.133,192.085c3.08,1.463,6.309,2.779,11.362,2.271c2.794-7.055,7.553-12.143,9.09-20.451   c-4.569-1.869-10.202-2.676-14.771-4.546C29.163,176.177,28.601,185.085,26.133,192.085z M42.04,197.766   c1.593,10.308,15.43,9.735,21.588,5.681c-1.331,5.865-3.652,10.741-4.545,17.043c8.782,0.055,21.094-2.367,27.269-1.136   c-6.475,2.237-12.296,5.126-20.452,5.681c12.427,24.096,52.333-1.185,48.857-23.859c-4.306,4.406-10.635,6.789-15.907,10.227   c-0.323-4.602-1.95-7.898-2.271-12.498c4.351,4.389,10.474,5.176,17.043,2.271C133.99,157.746,37.563,168.82,42.04,197.766z    M113.205,174.476c4.679-7.334,8.482-14.475,10.947-21.323c-2.231-1.429-4.465-2.858-6.697-4.286   c-5.396,4.146-9.822,12.707-15.121,17.301C105.903,168.949,112.066,171.162,113.205,174.476z M20.452,261.395   c22.375-0.729,38.405-7.802,37.494-31.815C37.795,218.175,0.363,243.216,20.452,261.395z"/>
	<path d="M140.889,75.056c-11.023-6.775-23.593-12.008-43.175-10.226c2.377-19.161,36.528-18.066,42.041-2.272   c3.366-1.651-1.498-4.432,0-7.954c27.246,5.942,14.122,47.22-5.682,51.129C133.611,97.307,140.354,86.271,140.889,75.056z    M139.754,68.239c-4.914-9.993-25.743-19.261-35.224-7.954C118.1,60.358,131.164,66.972,139.754,68.239z M140.889,96.644   c7.45-6.104,17.029-28.272,3.408-35.222C146.759,76.01,139.743,87.155,140.889,96.644z"/>
	<path fill="#5D9732" d="M104.531,60.286c9.48-11.308,30.31-2.04,35.224,7.954C131.164,66.972,118.1,60.358,104.531,60.286z"/>
	<path fill="#5D9732" d="M107.938,130.73c6.099,21.251-15.244,24.898-26.132,32.95C87.836,154.555,103.49,145.221,107.938,130.73z"/>
	<path fill="#F9B4A6" d="M35.222,156.863c7.975-21.567,16.898-42.184,26.133-62.491C108.771,103.084,74.516,180.005,35.222,156.863z    M55.674,127.322c-0.824-3.476,1.96-3.342,1.136-6.817c-1.136,0-2.271,0-3.409,0C51.653,122.235,51.377,128.296,55.674,127.322z    M65.9,144.365c-2.043-4.512,0.119-9.718,4.544-6.817c0.852-4.26-1.279-5.537-4.544-5.681   C65.529,135.447,60.776,142.292,65.9,144.365z"/>
</g>
<path d="M214.574,158.188c-29.684,14.519-60.734,27.242-90.446,41.724C100.467,144.147,188.114,117.935,214.574,158.188z   M126.163,193.305c27.931-11.074,54.861-23.458,81.654-36.025C181.351,126.969,111.865,146.83,126.163,193.305z"/>
<path d="M167.58,149.578c2.468,1.231,0.158,7.118-3.01,5.327C164.093,151.187,166.128,150.763,167.58,149.578z"/>
<path d="M159.227,169.089c1.126,0.152,2.252,0.304,3.377,0.455c-0.483,3.779-1.01,7.506-5.412,6.15  C156.84,172.145,158.896,171.746,159.227,169.089z"/>
<path fill="#F9B4A6" d="M207.818,157.28c-26.793,12.568-53.725,24.951-81.654,36.025C111.865,146.83,181.351,126.969,207.818,157.28  z M164.571,154.905c3.168,1.791,5.478-4.096,3.01-5.327C166.128,150.763,164.093,151.187,164.571,154.905z M157.191,175.695  c4.402,1.355,4.929-2.371,5.412-6.15c-1.125-0.151-2.251-0.303-3.377-0.455C158.896,171.746,156.84,172.145,157.191,175.695z"/>
<path fill="#C5C19D" d="M198.897,104.701c-3.38,4.584-10.895,2.327-14.739,0.933c-2.584,7.816,3.36,11.472,6.304,16.591  c-9.469,5.024-18.749,10.432-30.293,11.2c0.608-6.148,1.399-16.512-6.674-15.517c-0.586,2.636-4.056,8.189-7.996,9.264  c-2.506-0.862-5.015-1.726-7.521-2.589C130.692,101.993,201.539,71.302,198.897,104.701z"/>
<path fill="#C5C19D" d="M202.861,103.663c8.021-20.041-22.946-16.423-35.083-13.281c-17.349,4.492-31.275,14.343-35.876,30.907  c4.925,11.713,20.074,9.126,25.148,0.248c-0.361,6.137-0.078,11.957,1.268,17.259c11.871-6.816,25.933-9.146,37.181-17.24  c-3.778-4.116-7.113-8.448-9.933-13.033C194.154,111.402,200.453,109.682,202.861,103.663z"/>
<path d="M185.566,108.522c2.818,4.585,6.153,8.917,9.933,13.033c-11.248,8.094-25.31,10.423-37.181,17.24  c-1.346-5.302-1.629-11.123-1.268-17.259c-5.074,8.878-20.225,11.466-25.148-0.248c4.601-16.564,18.527-26.416,35.876-30.907  c12.137-3.142,43.104-6.76,35.083,13.281C200.453,109.682,194.154,111.402,185.566,108.522z M137.978,124.583  c2.507,0.863,5.016,1.727,7.521,2.589c3.94-1.074,7.41-6.628,7.996-9.264c8.073-0.995,7.282,9.369,6.674,15.517  c11.544-0.768,20.824-6.176,30.293-11.2c-2.942-5.119-8.888-8.774-6.304-16.591c3.846,1.394,11.359,3.651,14.739-0.933  C201.539,71.302,130.692,101.993,137.978,124.583z"/>
<path d="M191.968,130.916c6.152,18.724,38.938,22.147,45.211,1.85C227.544,115.634,198.502,114.672,191.968,130.916z"/>
<path d="M237.179,132.766c-6.271,20.297-39.059,16.874-45.211-1.85C198.502,114.672,227.544,115.634,237.179,132.766z   M197.224,128.762c3.3,15.069,30.389,17.353,33.911,3.043C225.972,119.402,204.628,118.25,197.224,128.762z"/>
<path fill="#8A7967" d="M231.135,131.805c-3.522,14.31-30.611,12.026-33.911-3.043C204.628,118.25,225.972,119.402,231.135,131.805z   M204.826,129.33c2.015,7.297,14.128,8.442,17.733,1.326C220.243,122.471,205.806,122.895,204.826,129.33z"/>
<path d="M222.561,130.656c-3.605,7.116-15.72,5.971-17.733-1.326C205.806,122.895,220.243,122.471,222.561,130.656z"/>
</svg>